<?xml version="1.0" encoding="UTF-8" standalone="no"?>
<!-- Created with Inkscape (http://www.inkscape.org/) -->

<svg
   xmlns:dc="http://purl.org/dc/elements/1.1/"
   xmlns:cc="http://creativecommons.org/ns#"
   xmlns:rdf="http://www.w3.org/1999/02/22-rdf-syntax-ns#"
   xmlns:svg="http://www.w3.org/2000/svg"
   xmlns="http://www.w3.org/2000/svg"
   xmlns:sodipodi="http://sodipodi.sourceforge.net/DTD/sodipodi-0.dtd"
   xmlns:inkscape="http://www.inkscape.org/namespaces/inkscape"
   width="800px"
   height="600px"
   id="svg3171"
   version="1.1"
   inkscape:version="0.48.4 r9939"
   sodipodi:docname="stars_drawing.svg">
  <defs
     id="defs3173" />
  <sodipodi:namedview
     id="base"
     pagecolor="#ffffff"
     bordercolor="#666666"
     borderopacity="1.0"
     inkscape:pageopacity="0.0"
     inkscape:pageshadow="2"
     inkscape:zoom="2.4"
     inkscape:cx="425.57463"
     inkscape:cy="491.07513"
     inkscape:current-layer="layer1"
     inkscape:document-units="px"
     showgrid="false"
     inkscape:window-width="1309"
     inkscape:window-height="744"
     inkscape:window-x="57"
     inkscape:window-y="24"
     inkscape:window-maximized="1" />
  <metadata
     id="metadata3176">
    <rdf:RDF>
      <cc:Work
         rdf:about="">
        <dc:format>image/svg+xml</dc:format>
        <dc:type
           rdf:resource="http://purl.org/dc/dcmitype/StillImage" />
      </cc:Work>
    </rdf:RDF>
  </metadata>
  <g
     id="layer1"
     inkscape:label="Layer 1"
     inkscape:groupmode="layer">
    <path
       sodipodi:type="star"
       style="fill:#f2f2f2"
       id="path3246"
       sodipodi:sides="5"
       sodipodi:cx="640.41667"
       sodipodi:cy="37.499999"
       sodipodi:r1="13.04373"
       sodipodi:r2="6.5218646"
       sodipodi:arg1="1.1071487"
       sodipodi:arg2="1.7354672"
       inkscape:flatsided="false"
       inkscape:rounded="0"
       inkscape:randomized="0"
       d="m 646.25002,49.166666 -6.90245,-5.233027 -8.22394,2.719389 2.84393,-8.181712 -5.12763,-6.9811 8.66009,0.176451 5.0549,-7.033946 2.5083,8.290765 8.25173,2.633882 -7.10988,4.947524 z"
       inkscape:transform-center-x="-0.66074904"
       inkscape:transform-center-y="-0.60030612" />
    <path
       sodipodi:type="star"
       style="fill:#f2f2f2"
       id="path3248"
       sodipodi:sides="5"
       sodipodi:cx="661.66667"
       sodipodi:cy="83.333333"
       sodipodi:r1="5.3359369"
       sodipodi:r2="2.6679683"
       sodipodi:arg1="0.89605538"
       sodipodi:arg2="1.5243739"
       inkscape:flatsided="false"
       inkscape:rounded="0"
       inkscape:randomized="0"
       d="m 665.00002,87.500003 -3.20952,-1.501573 -3.05649,1.792665 0.43628,-3.51645 -2.64943,-2.352929 3.47916,-0.671713 1.41905,-3.246856 1.71396,3.101309 3.52645,0.346262 -2.41988,2.588428 z"
       inkscape:transform-center-x="0.0765182"
       inkscape:transform-center-y="-0.43621456" />
    <path
       sodipodi:type="star"
       style="fill:#f2f2f2"
       id="path3250"
       sodipodi:sides="5"
       sodipodi:cx="704.16667"
       sodipodi:cy="66.666666"
       sodipodi:r1="10.90521"
       sodipodi:r2="5.4526048"
       sodipodi:arg1="0.81241861"
       sodipodi:arg2="1.4407371"
       inkscape:flatsided="false"
       inkscape:rounded="0"
       inkscape:randomized="0"
       d="m 711.66669,74.58333 -6.79284,-2.510113 -5.91873,4.172755 0.28816,-7.236038 -5.79752,-4.339598 6.97093,-1.962005 2.33567,-6.854773 4.02011,6.023452 7.24104,0.103115 -4.48636,5.684703 z"
       inkscape:transform-center-x="0.43705125"
       inkscape:transform-center-y="-0.61689943" />
    <path
       sodipodi:type="star"
       style="fill:#f2f2f2"
       id="path3252"
       sodipodi:sides="5"
       sodipodi:cx="731.66667"
       sodipodi:cy="98.749999"
       sodipodi:r1="9.2515014"
       sodipodi:r2="4.6257505"
       sodipodi:arg1="0.94531129"
       sodipodi:arg2="1.5736298"
       inkscape:flatsided="false"
       inkscape:rounded="0"
       inkscape:randomized="0"
       d="m 737.08335,106.25 -5.42977,-2.87427 -5.44597,2.84345 1.05569,-6.05222 -4.38718,-4.300751 L 728.95835,95 l 2.73455,-5.501464 2.70333,5.516872 6.07722,0.900663 -4.41148,4.275829 z"
       inkscape:transform-center-x="-0.0081005734"
       inkscape:transform-center-y="-0.87573212" />
    <path
       sodipodi:type="star"
       style="fill:#f2f2f2"
       id="path3254"
       sodipodi:sides="5"
       sodipodi:cx="757.5"
       sodipodi:cy="37.499999"
       sodipodi:r1="5.5901699"
       sodipodi:r2="2.7950849"
       sodipodi:arg1="1.1071487"
       sodipodi:arg2="1.7354672"
       inkscape:flatsided="false"
       inkscape:rounded="0"
       inkscape:randomized="0"
       d="m 760,42.5 -2.95819,-2.242726 -3.52455,1.165452 1.21883,-3.506448 -2.19756,-2.9919 L 756.25,35 l 2.16638,-3.014548 1.07499,3.553185 3.53646,1.128807 -3.0471,2.120367 z"
       inkscape:transform-center-x="-0.28317816"
       inkscape:transform-center-y="-0.25727405" />
    <path
       sodipodi:type="star"
       style="fill:#f2f2f2"
       id="path3256"
       sodipodi:sides="5"
       sodipodi:cx="776.66667"
       sodipodi:cy="53.749999"
       sodipodi:r1="5.0689688"
       sodipodi:r2="2.5344843"
       sodipodi:arg1="1.4056476"
       sodipodi:arg2="2.0339662"
       inkscape:flatsided="false"
       inkscape:rounded="0"
       inkscape:randomized="0"
       d="m 777.50002,58.75 -1.96571,-2.732547 -3.36539,0.07018 1.99137,-2.713901 -1.10671,-3.178995 3.19644,1.055264 2.68141,-2.034906 -0.0159,3.36609 2.76391,1.921354 -3.20624,1.025094 z"
       inkscape:transform-center-x="-0.25751416"
       inkscape:transform-center-y="0.23254699" />
    <path
       sodipodi:type="star"
       style="fill:#f2f2f2"
       id="path3258"
       sodipodi:sides="5"
       sodipodi:cx="776.25"
       sodipodi:cy="77.916666"
       sodipodi:r1="3.3592741"
       sodipodi:r2="1.679637"
       sodipodi:arg1="1.0516502"
       sodipodi:arg2="1.6799687"
       inkscape:flatsided="false"
       inkscape:rounded="0"
       inkscape:randomized="0"
       d="m 777.91667,80.833331 -1.84968,-1.247029 -2.07588,0.816756 0.61442,-2.144497 -1.41827,-1.721888 2.22941,-0.07834 1.19934,-1.880942 0.76343,2.096078 2.1595,0.559402 -1.75757,1.37379 z"
       inkscape:transform-center-x="-0.11310393"
       inkscape:transform-center-y="-0.21130416" />
    <path
       sodipodi:type="star"
       style="fill:#f2f2f2"
       id="path3260"
       sodipodi:sides="5"
       sodipodi:cx="780.41667"
       sodipodi:cy="114.58333"
       sodipodi:r1="13.083599"
       sodipodi:r2="6.5417992"
       sodipodi:arg1="1.4108832"
       sodipodi:arg2="2.0392017"
       inkscape:flatsided="false"
       inkscape:rounded="0"
       inkscape:randomized="0"
       d="m 782.50002,127.5 -5.03672,-7.07949 -8.68731,0.13566 5.17656,-6.97789 -2.81354,-8.2202 8.23601,2.76692 6.94844,-5.21603 -0.0864,8.68794 7.10792,4.99652 -8.28942,2.60252 z"
       inkscape:transform-center-x="-0.64378541"
       inkscape:transform-center-y="0.62115561" />
    <path
       sodipodi:type="star"
       style="fill:#f2f2f2"
       id="path3262"
       sodipodi:sides="5"
       sodipodi:cx="762.08333"
       sodipodi:cy="140.41667"
       sodipodi:r1="8.0902033"
       sodipodi:r2="4.0451015"
       sodipodi:arg1="0.96850898"
       sodipodi:arg2="1.5968275"
       inkscape:flatsided="false"
       inkscape:rounded="0"
       inkscape:randomized="0"
       d="m 766.66665,147.08334 -4.68862,-2.62294 -4.81877,2.37539 1.0457,-5.26967 -3.74821,-3.84888 5.3349,-0.6339 2.50224,-4.75413 2.25145,4.8779 5.29468,0.91067 -3.94343,3.64861 z"
       inkscape:transform-center-x="-0.06507088"
       inkscape:transform-center-y="-0.71039785" />
    <path
       sodipodi:type="star"
       style="fill:#f2f2f2"
       id="path3264"
       sodipodi:sides="5"
       sodipodi:cx="766.25"
       sodipodi:cy="166.25"
       sodipodi:r1="6.0092521"
       sodipodi:r2="3.004626"
       sodipodi:arg1="0.5880026"
       sodipodi:arg2="1.2163211"
       inkscape:flatsided="false"
       inkscape:rounded="0"
       inkscape:randomized="0"
       d="m 771.25,169.58333 -3.9571,-0.51551 -2.668,2.96752 -0.73254,-3.92273 -3.64673,-1.62041 3.50437,-1.90887 0.4142,-3.96898 2.89835,2.74298 3.90272,-0.83256 -1.71309,3.60413 z"
       inkscape:transform-center-x="0.50218457"
       inkscape:transform-center-y="0.074844827" />
    <path
       sodipodi:type="star"
       style="fill:#f2f2f2"
       id="path3266"
       sodipodi:sides="5"
       sodipodi:cx="784.58333"
       sodipodi:cy="185"
       sodipodi:r1="9.5014619"
       sodipodi:r2="4.7507309"
       sodipodi:arg1="1.3045443"
       sodipodi:arg2="1.9328628"
       inkscape:flatsided="false"
       inkscape:rounded="0"
       inkscape:randomized="0"
       d="m 787.08331,194.16667 -4.18274,-4.72394 -6.26273,0.76757 3.20019,-5.43781 -2.66529,-5.71902 6.16057,1.3632 4.61549,-4.30212 0.60725,6.2803 5.51782,3.06016 -5.78527,2.51825 z"
       inkscape:transform-center-x="-0.77254249"
       inkscape:transform-center-y="0.14060721" />
    <path
       sodipodi:type="star"
       style="fill:#f2f2f2"
       id="path3268"
       sodipodi:sides="5"
       sodipodi:cx="732.08333"
       sodipodi:cy="201.25"
       sodipodi:r1="4.8591266"
       sodipodi:r2="2.4295633"
       sodipodi:arg1="1.0303768"
       sodipodi:arg2="1.6586954"
       inkscape:flatsided="false"
       inkscape:rounded="0"
       inkscape:randomized="0"
       d="m 734.58331,205.41667 -2.71328,-1.74649 -2.97691,1.24503 0.82255,-3.12017 -2.104,-2.44648 3.22164,-0.18189 1.67657,-2.75704 1.16853,3.00776 3.14018,0.74254 -2.49945,2.04079 z"
       inkscape:transform-center-x="-0.13181513"
       inkscape:transform-center-y="-0.3368503" />
    <path
       sodipodi:type="star"
       style="fill:#f2f2f2"
       id="path3270"
       sodipodi:sides="5"
       sodipodi:cx="747.08333"
       sodipodi:cy="221.25"
       sodipodi:r1="6.5085414"
       sodipodi:r2="3.2542707"
       sodipodi:arg1="0.69473828"
       sodipodi:arg2="1.3230568"
       inkscape:flatsided="false"
       inkscape:rounded="0"
       inkscape:randomized="0"
       d="m 752.08331,225.41667 -4.20201,-1.01175 -3.21564,2.88793 -0.33626,-4.30899 -3.74028,-2.16584 3.99419,-1.65135 0.90402,-4.2265 2.80481,3.2884 4.29899,-0.44628 -2.26072,3.6837 z"
       inkscape:transform-center-x="0.49318487"
       inkscape:transform-center-y="-0.13348851" />
    <path
       sodipodi:type="star"
       style="fill:#f2f2f2"
       id="path3272"
       sodipodi:sides="5"
       sodipodi:cx="713.33333"
       sodipodi:cy="150.83333"
       sodipodi:r1="7.861651"
       sodipodi:r2="3.9308255"
       sodipodi:arg1="1.012197"
       sodipodi:arg2="1.6405155"
       inkscape:flatsided="false"
       inkscape:rounded="0"
       inkscape:randomized="0"
       d="m 717.49998,157.49999 -4.4405,-2.74539 -4.77897,2.10158 1.23883,-5.07154 -3.4755,-3.89565 5.20614,-0.38899 2.631,-4.50922 1.97874,4.83112 5.10154,1.10881 -3.98321,3.37479 z"
       inkscape:transform-center-x="-0.16923755"
       inkscape:transform-center-y="-0.58794259" />
    <path
       sodipodi:type="star"
       style="fill:#f2f2f2"
       id="path3274"
       sodipodi:sides="5"
       sodipodi:cx="730.83333"
       sodipodi:cy="138.33333"
       sodipodi:r1="2.9462783"
       sodipodi:r2="1.4731391"
       sodipodi:arg1="1.4288993"
       sodipodi:arg2="2.0572178"
       inkscape:flatsided="false"
       inkscape:rounded="0"
       inkscape:randomized="0"
       d="m 731.24998,141.25 -1.10531,-1.6144 -1.95651,-0.005 1.19382,-1.55008 -0.60013,-1.86221 1.84313,0.65638 1.58562,-1.14621 -0.0547,1.95576 1.58009,1.15381 -1.87694,0.55234 z"
       inkscape:transform-center-x="-0.12875708"
       inkscape:transform-center-y="0.15606162" />
    <path
       sodipodi:type="star"
       style="fill:#f2f2f2"
       id="path3276"
       sodipodi:sides="5"
       sodipodi:cx="693.33333"
       sodipodi:cy="164.58333"
       sodipodi:r1="3.3592741"
       sodipodi:r2="1.679637"
       sodipodi:arg1="0.51914611"
       sodipodi:arg2="1.1474646"
       inkscape:flatsided="false"
       inkscape:rounded="0"
       inkscape:randomized="0"
       d="m 696.24998,166.24999 -2.22667,-0.13529 -1.37379,1.75757 -0.5594,-2.1595 -2.09608,-0.76343 1.88094,-1.19934 0.0783,-2.22941 1.72189,1.41827 2.1445,-0.61442 -0.81676,2.07588 z"
       inkscape:transform-center-x="0.21130416"
       inkscape:transform-center-y="0.11310393" />
    <path
       sodipodi:type="star"
       style="fill:#f2f2f2"
       id="path3278"
       sodipodi:sides="5"
       sodipodi:cx="725.41667"
       sodipodi:cy="7.4999994"
       sodipodi:r1="9.1382134"
       sodipodi:r2="4.5691066"
       sodipodi:arg1="0.81764505"
       sodipodi:arg2="1.4459636"
       inkscape:flatsided="false"
       inkscape:rounded="0"
       inkscape:randomized="0"
       d="m 731.66669,14.166666 -5.68111,-2.133114 -4.97791,3.470664 0.27315,-6.0622217 -4.83906,-3.6617836 5.84993,-1.6135445 1.98721,-5.7337709 3.3423,5.0649961 6.06722,0.1181183 -3.78427,4.7438843 z"
       inkscape:transform-center-x="0.35159579"
       inkscape:transform-center-y="-0.53144397" />
    <path
       sodipodi:type="star"
       style="fill:#f2f2f2"
       id="path3280"
       sodipodi:sides="5"
       sodipodi:cx="785"
       sodipodi:cy="10.416666"
       sodipodi:r1="3.3592741"
       sodipodi:r2="1.679637"
       sodipodi:arg1="1.4464413"
       sodipodi:arg2="2.0747599"
       inkscape:flatsided="false"
       inkscape:rounded="0"
       inkscape:randomized="0"
       d="m 785.41667,13.749999 -1.22777,-1.862516 -2.23033,-0.04449 1.39196,-1.743222 -0.6469,-2.1349208 2.08804,0.7851462 1.83052,-1.2749673 -0.10147,2.2284689 1.77823,1.346948 -2.15076,0.592123 z"
       inkscape:transform-center-x="-0.12875708"
       inkscape:transform-center-y="0.19584975" />
    <path
       sodipodi:type="star"
       style="fill:#f2f2f2"
       id="path3282"
       sodipodi:sides="5"
       sodipodi:cx="37.5"
       sodipodi:cy="15.833333"
       sodipodi:r1="11.938791"
       sodipodi:r2="5.9693952"
       sodipodi:arg1="1.060308"
       sodipodi:arg2="1.6886265"
       inkscape:flatsided="false"
       inkscape:rounded="0"
       inkscape:randomized="0"
       d="m 43.333334,26.25 -6.535082,-4.488663 -7.402492,2.838753 2.249521,-7.602305 -4.98731,-6.162965 7.925362,-0.20982 4.320164,-6.6476753 2.648623,7.4726303 7.657318,2.054475 -6.288424,4.828159 z"
       inkscape:transform-center-x="-0.4337045"
       inkscape:transform-center-y="-0.7196705" />
    <path
       sodipodi:type="star"
       style="fill:#f2f2f2"
       id="path3284"
       sodipodi:sides="5"
       sodipodi:cx="38.333333"
       sodipodi:cy="65.833333"
       sodipodi:r1="7.8284559"
       sodipodi:r2="3.9142278"
       sodipodi:arg1="1.1309537"
       sodipodi:arg2="1.7592723"
       inkscape:flatsided="false"
       inkscape:rounded="0"
       inkscape:randomized="0"
       d="m 41.666666,72.916669 -4.066712,-3.238423 -4.973215,1.514149 1.82324,-4.8684 -2.976849,-4.261912 5.193536,0.229586 3.133421,-4.148154 1.386542,5.010292 4.91341,1.698211 -4.336606,2.866944 z"
       inkscape:transform-center-x="-0.45325239"
       inkscape:transform-center-y="-0.30324394" />
    <path
       sodipodi:type="star"
       style="fill:#f2f2f2"
       id="path3286"
       sodipodi:sides="5"
       sodipodi:cx="61.666667"
       sodipodi:cy="47.083333"
       sodipodi:r1="3.5843022"
       sodipodi:r2="1.792151"
       sodipodi:arg1="0.62024949"
       sodipodi:arg2="1.248568"
       inkscape:flatsided="false"
       inkscape:rounded="0"
       inkscape:randomized="0"
       d="m 64.583335,49.166665 -2.349127,-0.38342 -1.647608,1.717787 -0.361266,-2.352635 -2.142852,-1.036143 2.125853,-1.070589 0.323253,-2.358159 1.675114,1.690976 2.342633,-0.421279 -1.090574,2.115668 z"
       inkscape:transform-center-x="0.33375942"
       inkscape:transform-center-y="0.00893726" />
    <path
       sodipodi:type="star"
       style="fill:#f2f2f2"
       id="path3288"
       sodipodi:sides="5"
       sodipodi:cx="17.5"
       sodipodi:cy="32.083333"
       sodipodi:r1="6.8338415"
       sodipodi:r2="3.4169205"
       sodipodi:arg1="0.9151007"
       sodipodi:arg2="1.5434192"
       inkscape:flatsided="false"
       inkscape:rounded="0"
       inkscape:randomized="0"
       d="m 21.666667,37.499999 -4.073133,-2.001027 -3.957519,2.220938 0.644422,-4.492131 -3.335178,-3.077517 4.471408,-0.775263 1.896266,-4.122947 2.119059,4.012991 4.507135,0.529396 -3.161757,3.255428 z"
       inkscape:transform-center-x="0.057806993"
       inkscape:transform-center-y="-0.59735153" />
    <path
       sodipodi:type="star"
       style="fill:#f2f2f2"
       id="path3290"
       sodipodi:sides="5"
       sodipodi:cx="95.416667"
       sodipodi:cy="29.999999"
       sodipodi:r1="5.3359369"
       sodipodi:r2="2.6679682"
       sodipodi:arg1="0.67474094"
       sodipodi:arg2="1.3030595"
       inkscape:flatsided="false"
       inkscape:rounded="0"
       inkscape:randomized="0"
       d="m 99.583331,33.333332 -3.460857,-0.76042 -2.588427,2.419878 -0.346262,-3.526453 -3.101309,-1.713957 3.246855,-1.419049 0.671713,-3.479162 2.352929,2.649433 3.51645,-0.436283 -1.792665,3.056488 z"
       inkscape:transform-center-x="0.43621456"
       inkscape:transform-center-y="-0.0765182" />
    <path
       sodipodi:type="star"
       style="fill:#f2f2f2"
       id="path3292"
       sodipodi:sides="5"
       sodipodi:cx="67.916667"
       sodipodi:cy="17.083333"
       sodipodi:r1="8.0039053"
       sodipodi:r2="4.0019523"
       sodipodi:arg1="0.89605538"
       sodipodi:arg2="1.5243739"
       inkscape:flatsided="false"
       inkscape:rounded="0"
       inkscape:randomized="0"
       d="m 72.916664,23.333332 -4.814286,-2.252359 -4.584732,2.688998 0.654424,-5.274676 -3.974149,-3.529393 5.218743,-1.00757 2.128573,-4.8702824 2.570936,4.6519634 5.289679,0.519393 -3.629817,3.882641 z"
       inkscape:transform-center-x="0.1147773"
       inkscape:transform-center-y="-0.65432184" />
    <path
       sodipodi:type="star"
       style="fill:#f2f2f2"
       id="path3294"
       sodipodi:sides="5"
       sodipodi:cx="31.25"
       sodipodi:cy="87.083333"
       sodipodi:r1="5.2208184"
       sodipodi:r2="2.610409"
       sodipodi:arg1="1.0714496"
       sodipodi:arg2="1.6997681"
       inkscape:flatsided="false"
       inkscape:rounded="0"
       inkscape:randomized="0"
       d="m 33.75,91.666669 -2.835737,-1.994604 -3.25073,1.20524 1.020691,-3.313312 L 26.533442,84.844804 30,84.791669 l 1.921473,-2.885791 1.12176,3.280473 3.338319,0.935671 -2.773273,2.080579 z"
       inkscape:transform-center-x="-0.20749665"
       inkscape:transform-center-y="-0.29706218" />
    <path
       sodipodi:type="star"
       style="fill:#f2f2f2"
       id="path3296"
       sodipodi:sides="5"
       sodipodi:cx="17.083333"
       sodipodi:cy="110"
       sodipodi:r1="4.8591266"
       sodipodi:r2="2.4295631"
       sodipodi:arg1="1.0303768"
       sodipodi:arg2="1.6586954"
       inkscape:flatsided="false"
       inkscape:rounded="0"
       inkscape:randomized="0"
       d="m 19.583332,114.16667 -2.713281,-1.74649 -2.976912,1.24503 0.822554,-3.12017 -2.104009,-2.44648 3.221648,-0.18189 1.676563,-2.75704 1.168533,3.00776 3.140182,0.74254 -2.499454,2.04079 z"
       inkscape:transform-center-x="-0.13181513"
       inkscape:transform-center-y="-0.3368503" />
    <path
       sodipodi:type="star"
       style="fill:#f2f2f2"
       id="path3298"
       sodipodi:sides="5"
       sodipodi:cx="154.16667"
       sodipodi:cy="8.7499994"
       sodipodi:r1="7.2886899"
       sodipodi:r2="3.6443446"
       sodipodi:arg1="0.5404195"
       sodipodi:arg2="1.168738"
       inkscape:flatsided="false"
       inkscape:rounded="0"
       inkscape:randomized="0"
       d="m 160.41667,12.499999 -4.82392,-0.396265 -3.06118,3.749182 -1.11381,-4.710272 -4.51164,-1.7528008 4.13555,-2.5148439 0.27284,-4.832472 3.66971,3.1560136 4.68027,-1.2338315 -1.86754,4.4653675 z"
       inkscape:transform-center-x="0.50527546"
       inkscape:transform-center-y="0.1977227" />
    <path
       sodipodi:type="star"
       style="fill:#f2f2f2"
       id="path3300"
       sodipodi:sides="5"
       sodipodi:cx="234.16667"
       sodipodi:cy="14.999999"
       sodipodi:r1="5.4326687"
       sodipodi:r2="2.7163341"
       sodipodi:arg1="1.0040671"
       sodipodi:arg2="1.6323856"
       inkscape:flatsided="false"
       inkscape:rounded="0"
       inkscape:randomized="0"
       d="m 237.08334,19.583332 -3.08386,-1.872149 -3.29052,1.479059 0.82756,-3.511449 -2.4235,-2.672415 3.59532,-0.298045 1.79271,-3.1307022 1.39448,3.3272472 3.53145,0.737534 -2.73348,2.354397 z"
       inkscape:transform-center-x="-0.10332998"
       inkscape:transform-center-y="-0.41951744" />
    <path
       sodipodi:type="star"
       style="fill:#f2f2f2"
       id="path3302"
       sodipodi:sides="5"
       sodipodi:cx="391.25"
       sodipodi:cy="56.249999"
       sodipodi:r1="3.8414769"
       sodipodi:r2="1.9207383"
       sodipodi:arg1="0.70862627"
       sodipodi:arg2="1.3369448"
       inkscape:flatsided="false"
       inkscape:rounded="0"
       inkscape:randomized="0"
       d="m 394.16667,58.75 -2.47159,-0.631542 -1.92142,1.677999 -0.16313,-2.545771 L 387.4209,55.941831 389.79167,55 l 0.56816,-2.486916 1.62834,1.963687 2.54077,-0.228143 -1.36439,2.155456 z"
       inkscape:transform-center-x="0.27507759"
       inkscape:transform-center-y="-0.095229407" />
    <path
       sodipodi:type="star"
       style="fill:#f2f2f2"
       id="path3304"
       sodipodi:sides="5"
       sodipodi:cx="439.16667"
       sodipodi:cy="11.666666"
       sodipodi:r1="8.9170561"
       sodipodi:r2="4.4585277"
       sodipodi:arg1="0.65284663"
       sodipodi:arg2="1.2811652"
       inkscape:flatsided="false"
       inkscape:rounded="0"
       inkscape:randomized="0"
       d="m 446.24999,17.083333 -5.80998,-1.14384 -4.23604,4.137665 -0.70753,-5.879088 -5.24416,-2.7501 5.37271,-2.4896372 0.99497,-5.837321 4.02804,4.3404085 5.85908,-0.8575626 -2.88324,5.1721563 z"
       inkscape:transform-center-x="0.78697366"
       inkscape:transform-center-y="-0.06758094" />
    <path
       sodipodi:type="star"
       style="fill:#f2f2f2"
       id="path3306"
       sodipodi:sides="5"
       sodipodi:cx="516.25"
       sodipodi:cy="26.666666"
       sodipodi:r1="3.7730771"
       sodipodi:r2="1.8865384"
       sodipodi:arg1="1.4601391"
       sodipodi:arg2="2.0884576"
       inkscape:flatsided="false"
       inkscape:rounded="0"
       inkscape:randomized="0"
       d="m 516.66667,30.416666 -1.35022,-2.110638 -2.50415,-0.08428 1.59009,-1.936357 -0.69368,-2.407633 2.33296,0.913903 2.07543,-1.403724 -0.14825,2.50118 1.97637,1.540084 -2.42458,0.631911 z"
       inkscape:transform-center-x="-0.12875708"
       inkscape:transform-center-y="0.23563787" />
  </g>
</svg>
