<?xml version="1.0" encoding="UTF-8" standalone="no"?>
<!-- Created with Inkscape (http://www.inkscape.org/) -->

<svg
   xmlns:dc="http://purl.org/dc/elements/1.1/"
   xmlns:cc="http://creativecommons.org/ns#"
   xmlns:rdf="http://www.w3.org/1999/02/22-rdf-syntax-ns#"
   xmlns:svg="http://www.w3.org/2000/svg"
   xmlns="http://www.w3.org/2000/svg"
   xmlns:sodipodi="http://sodipodi.sourceforge.net/DTD/sodipodi-0.dtd"
   xmlns:inkscape="http://www.inkscape.org/namespaces/inkscape"
   width="800px"
   height="600px"
   id="svg3171"
   version="1.1"
   inkscape:version="0.48.4 r9939"
   sodipodi:docname="stars_drawing.svg">
  <defs
     id="defs3173" />
  <sodipodi:namedview
     id="base"
     pagecolor="#ffffff"
     bordercolor="#666666"
     borderopacity="1.0"
     inkscape:pageopacity="0.0"
     inkscape:pageshadow="2"
     inkscape:zoom="4"
     inkscape:cx="604.04555"
     inkscape:cy="275.09537"
     inkscape:current-layer="layer1"
     inkscape:document-units="px"
     showgrid="false"
     inkscape:window-width="1309"
     inkscape:window-height="744"
     inkscape:window-x="57"
     inkscape:window-y="24"
     inkscape:window-maximized="1" />
  <metadata
     id="metadata3176">
    <rdf:RDF>
      <cc:Work
         rdf:about="">
        <dc:format>image/svg+xml</dc:format>
        <dc:type
           rdf:resource="http://purl.org/dc/dcmitype/StillImage" />
      </cc:Work>
    </rdf:RDF>
  </metadata>
  <g
     id="layer1"
     inkscape:label="Layer 1"
     inkscape:groupmode="layer">
    <path
       sodipodi:type="star"
       style="fill:#f2f2f2"
       id="path3726"
       sodipodi:sides="5"
       sodipodi:cx="594.32325"
       sodipodi:cy="32.193257"
       sodipodi:r1="6.0827625"
       sodipodi:r2="3.0413808"
       sodipodi:arg1="0.95054684"
       sodipodi:arg2="1.5788654"
       inkscape:flatsided="false"
       inkscape:rounded="0"
       inkscape:randomized="0"
       d="m 597.85878,37.143004 -3.56008,-1.908466 -3.59041,1.850767 0.71494,-3.975581 -2.86968,-2.842763 4.00193,-0.548578 1.81684,-3.607691 1.7584,3.63654 3.99255,0.613088 -2.91518,2.796084 z"
       inkscape:transform-center-x="-0.015167033"
       inkscape:transform-center-y="-0.56640852" />
    <path
       sodipodi:type="star"
       style="fill:#f2f2f2"
       id="path3728"
       sodipodi:sides="5"
       sodipodi:cx="673.87276"
       sodipodi:cy="48.810266"
       sodipodi:r1="12.966302"
       sodipodi:r2="6.4831503"
       sodipodi:arg1="1.1193432"
       sodipodi:arg2="1.7476618"
       inkscape:flatsided="false"
       inkscape:rounded="0"
       inkscape:randomized="0"
       d="m 679.5296,60.477526 -6.79754,-5.285248 -8.20748,2.603357 2.92602,-8.098068 -5.01219,-7.001299 8.60591,0.280366 5.10977,-6.930398 2.39273,8.271344 8.17021,2.718078 -7.12712,4.831605 z"
       inkscape:transform-center-x="-0.70497692"
       inkscape:transform-center-y="-0.54838338" />
    <path
       sodipodi:type="star"
       style="fill:#f2f2f2"
       id="path3730"
       sodipodi:sides="5"
       sodipodi:cx="600.68721"
       sodipodi:cy="80.630071"
       sodipodi:r1="6.3737744"
       sodipodi:r2="3.1868868"
       sodipodi:arg1="0.98279372"
       sodipodi:arg2="1.6111123"
       inkscape:flatsided="false"
       inkscape:rounded="0"
       inkscape:randomized="0"
       d="m 604.22273,85.933375 -3.66398,-2.119004 -3.82275,1.817005 0.88306,-4.139461 -2.90937,-3.074167 4.20974,-0.439325 2.02466,-3.716945 1.7187,3.867945 4.16068,0.776968 -3.14752,2.829845 z"
       inkscape:transform-center-x="-0.079384926"
       inkscape:transform-center-y="-0.53264717" />
    <path
       sodipodi:type="star"
       style="fill:#f2f2f2"
       id="path4038"
       sodipodi:sides="5"
       sodipodi:cx="680.94383"
       sodipodi:cy="98.30774"
       sodipodi:r1="6.946222"
       sodipodi:r2="3.4731107"
       sodipodi:arg1="1.3134726"
       sodipodi:arg2="1.9417911"
       inkscape:flatsided="false"
       inkscape:rounded="0"
       inkscape:randomized="0"
       d="m 682.71161,105.02525 -3.02691,-3.48069 -4.58332,0.52025 2.37497,-3.95436 -1.91111,-4.198227 4.49472,1.036759 3.40219,-3.114893 0.40293,4.595114 4.01377,2.273116 -4.2457,1.803181 z"
       inkscape:transform-center-x="-0.54627003"
       inkscape:transform-center-y="0.12193187" />
    <path
       sodipodi:type="star"
       style="fill:#f2f2f2"
       id="path4040"
       sodipodi:sides="5"
       sodipodi:cx="721.95602"
       sodipodi:cy="82.044285"
       sodipodi:r1="1.7677669"
       sodipodi:r2="0.8838834"
       sodipodi:arg1="0"
       sodipodi:arg2="0.62831853"
       inkscape:flatsided="false"
       inkscape:rounded="0"
       inkscape:randomized="0"
       d="m 723.72376,82.044289 -1.05269,0.519533 -0.16881,1.161713 -0.8194,-0.840623 -1.15702,0.198444 0.54627,-1.039067 -0.54627,-1.039068 1.15702,0.198445 0.8194,-0.840624 0.16881,1.161713 z"
       inkscape:transform-center-x="-0.16880672" />
    <path
       sodipodi:type="star"
       style="fill:#f2f2f2"
       id="path4042"
       sodipodi:sides="5"
       sodipodi:cx="644.17428"
       sodipodi:cy="114.21764"
       sodipodi:r1="6.4031242"
       sodipodi:r2="3.2015619"
       sodipodi:arg1="1.4601391"
       sodipodi:arg2="2.0884576"
       inkscape:flatsided="false"
       inkscape:rounded="0"
       inkscape:randomized="0"
       d="m 644.88136,120.5816 -2.29139,-3.58187 -4.24969,-0.14302 2.69848,-3.2861 -1.17721,-4.08589 3.95915,1.55094 3.52214,-2.3822 -0.2516,4.24465 3.35401,2.61361 -4.11464,1.07239 z"
       inkscape:transform-center-x="-0.21850801"
       inkscape:transform-center-y="0.39989073" />
    <path
       sodipodi:type="star"
       style="fill:#f2f2f2"
       id="path4044"
       sodipodi:sides="5"
       sodipodi:cx="635.68899"
       sodipodi:cy="79.922964"
       sodipodi:r1="6.0207973"
       sodipodi:r2="3.0103984"
       sodipodi:arg1="2.4393357"
       sodipodi:arg2="3.0676543"
       inkscape:flatsided="false"
       inkscape:rounded="0"
       inkscape:randomized="0"
       d="m 631.09277,83.812053 1.59402,-3.666706 -2.11687,-3.391827 3.97983,0.382929 2.57167,-3.061396 0.86564,3.90337 3.70625,1.49978 -3.44482,2.029486 -0.28109,3.988311 -2.99466,-2.649078 z"
       inkscape:transform-center-x="-0.44265169"
       inkscape:transform-center-y="-0.13743921" />
    <path
       sodipodi:type="star"
       style="fill:#f2f2f2"
       id="path4046"
       sodipodi:sides="5"
       sodipodi:cx="720.89536"
       sodipodi:cy="14.869141"
       sodipodi:r1="9.0898295"
       sodipodi:r2="4.5449143"
       sodipodi:arg1="1.8063413"
       sodipodi:arg2="2.4346598"
       inkscape:flatsided="false"
       inkscape:rounded="0"
       inkscape:randomized="0"
       d="m 718.77407,23.707975 -1.33444,-5.886891 -5.606,-2.238089 5.1864,-3.088277 0.3962,-6.0232257 4.53982,3.9782317 5.85086,-1.4844701 -2.38065,5.5469591 3.21983,5.105773 -6.01113,-0.550022 z"
       inkscape:transform-center-x="0.65552403"
       inkscape:transform-center-y="0.22059321" />
    <path
       sodipodi:type="star"
       style="fill:#f2f2f2"
       id="path4048"
       sodipodi:sides="5"
       sodipodi:cx="647.0027"
       sodipodi:cy="24.415082"
       sodipodi:r1="5.7118298"
       sodipodi:r2="2.8559146"
       sodipodi:arg1="1.1902899"
       sodipodi:arg2="1.8186085"
       inkscape:flatsided="false"
       inkscape:rounded="0"
       inkscape:randomized="0"
       d="m 649.12401,29.718384 -2.82183,-2.534631 -3.68771,0.887636 1.53858,-3.466963 -1.98375,-3.232922 3.77273,0.391929 2.46167,-2.885691 0.79309,3.709188 3.50516,1.449467 -3.28257,1.900476 z"
       inkscape:transform-center-x="-0.43293832"
       inkscape:transform-center-y="-0.11702024" />
    <path
       sodipodi:type="star"
       style="fill:#f2f2f2"
       id="path4050"
       sodipodi:sides="5"
       sodipodi:cx="544.47222"
       sodipodi:cy="67.902149"
       sodipodi:r1="3.5355339"
       sodipodi:r2="1.7677668"
       sodipodi:arg1="0.92729522"
       sodipodi:arg2="1.5556137"
       inkscape:flatsided="false"
       inkscape:rounded="0"
       inkscape:randomized="0"
       d="m 546.59355,70.730573 -2.09448,-1.060865 -2.06131,1.123965 0.36171,-2.319796 -1.70593,-1.613096 2.31803,-0.372849 1.00698,-2.120913 1.07091,2.089363 2.32829,0.3023 -1.65618,1.664146 z"
       inkscape:transform-center-x="0.016586937"
       inkscape:transform-center-y="-0.32179942" />
    <path
       sodipodi:type="star"
       style="fill:#f2f2f2"
       id="path4052"
       sodipodi:sides="5"
       sodipodi:cx="526.441"
       sodipodi:cy="31.132596"
       sodipodi:r1="10.398317"
       sodipodi:r2="5.1991581"
       sodipodi:arg1="1.259798"
       sodipodi:arg2="1.8881166"
       inkscape:flatsided="false"
       inkscape:rounded="0"
       inkscape:randomized="0"
       d="m 529.62296,41.03209 -4.80423,-4.959905 -6.80944,1.145766 3.23256,-6.10179 -3.19392,-6.122104 6.80206,1.188791 4.83549,-4.929434 0.97135,6.836504 6.18241,3.075545 -6.20173,3.036401 z"
       inkscape:transform-center-x="-0.98328605"
       inkscape:transform-center-y="0.010157039" />
    <path
       sodipodi:type="star"
       style="fill:#f2f2f2"
       id="path4054"
       sodipodi:sides="5"
       sodipodi:cx="677.40829"
       sodipodi:cy="142.85547"
       sodipodi:r1="3.8890873"
       sodipodi:r2="1.9445435"
       sodipodi:arg1="1.5707963"
       sodipodi:arg2="2.1991149"
       inkscape:flatsided="false"
       inkscape:rounded="0"
       inkscape:randomized="0"
       d="m 677.40826,146.74456 -1.14297,-2.31592 -2.55577,-0.37138 1.84937,-1.80269 -0.43657,-2.54544 2.28594,1.2018 2.28595,-1.2018 -0.43658,2.54544 1.84938,1.80269 -2.55577,0.37138 z"
       inkscape:transform-center-y="0.37137479" />
    <path
       sodipodi:type="star"
       style="fill:#f2f2f2"
       id="path4056"
       sodipodi:sides="5"
       sodipodi:cx="39.244426"
       sodipodi:cy="60.123974"
       sodipodi:r1="4.3011626"
       sodipodi:r2="2.1505811"
       sodipodi:arg1="1.4056476"
       sodipodi:arg2="2.0339662"
       inkscape:flatsided="false"
       inkscape:rounded="0"
       inkscape:randomized="0"
       d="m 39.951534,64.366615 -1.667957,-2.318644 -2.855633,0.05955 1.689733,-2.302822 -0.939074,-2.697467 2.71227,0.895422 2.275254,-1.726676 -0.01346,2.856223 2.345258,1.630322 -2.720588,0.869821 z"
       inkscape:transform-center-x="-0.21850801"
       inkscape:transform-center-y="0.19732267" />
    <path
       sodipodi:type="star"
       style="fill:#f2f2f2"
       id="path4058"
       sodipodi:sides="5"
       sodipodi:cx="62.57895"
       sodipodi:cy="16.990461"
       sodipodi:r1="6.1745445"
       sodipodi:r2="3.087272"
       sodipodi:arg1="1.3397057"
       sodipodi:arg2="1.9680242"
       inkscape:flatsided="false"
       inkscape:rounded="0"
       inkscape:randomized="0"
       d="m 63.993162,23.000869 -2.608566,-3.16352 -4.084868,0.355427 2.202595,-3.458475 -1.600326,-3.775108 3.969845,1.026065 3.095813,-2.688572 0.250904,4.092618 3.513643,2.113479 -3.814777,1.503312 z"
       inkscape:transform-center-x="-0.43701602"
       inkscape:transform-center-y="0.15831592" />
    <path
       sodipodi:type="star"
       style="fill:#f2f2f2"
       id="path4060"
       sodipodi:sides="5"
       sodipodi:cx="76.721085"
       sodipodi:cy="35.021684"
       sodipodi:r1="3.8242646"
       sodipodi:r2="1.9121322"
       sodipodi:arg1="0.98279372"
       sodipodi:arg2="1.6111123"
       inkscape:flatsided="false"
       inkscape:rounded="0"
       inkscape:randomized="0"
       d="m 78.842405,38.203663 -2.198389,-1.271402 -2.293651,1.090203 0.529836,-2.483677 -1.745622,-1.8445 2.525846,-0.263594 1.214797,-2.230167 1.031222,2.320766 2.496408,0.466181 -1.888515,1.697908 z"
       inkscape:transform-center-x="-0.047630956"
       inkscape:transform-center-y="-0.3195883" />
    <path
       sodipodi:type="star"
       style="fill:#f2f2f2"
       id="path4062"
       sodipodi:sides="5"
       sodipodi:cx="18.031223"
       sodipodi:cy="22.293762"
       sodipodi:r1="7.3824115"
       sodipodi:r2="3.6912056"
       sodipodi:arg1="1.2793395"
       sodipodi:arg2="1.9076581"
       inkscape:flatsided="false"
       inkscape:rounded="0"
       inkscape:randomized="0"
       d="m 20.152544,29.36483 -3.341363,-3.587321 -4.849419,0.718829 2.379207,-4.286368 -2.182199,-4.389941 4.811793,0.9382 3.500745,-3.431962 0.594646,4.866208 4.345778,2.268872 -4.444282,2.069282 z"
       inkscape:transform-center-x="-0.65552403"
       inkscape:transform-center-y="0.051786485" />
    <path
       sodipodi:type="star"
       style="fill:#f2f2f2"
       id="path4064"
       sodipodi:sides="5"
       sodipodi:cx="94.045202"
       sodipodi:cy="72.851896"
       sodipodi:r1="4.808846"
       sodipodi:r2="2.4044229"
       sodipodi:arg1="1.2722974"
       sodipodi:arg2="1.9006159"
       inkscape:flatsided="false"
       inkscape:rounded="0"
       inkscape:randomized="0"
       d="m 95.459418,77.448092 -2.19294,-2.321367 -3.155498,0.490472 1.530096,-2.802951 -1.44157,-2.849493 3.138591,0.589048 2.264559,-2.251556 0.40966,3.167004 2.841144,1.457954 -2.885407,1.368268 z"
       inkscape:transform-center-x="-0.43701602"
       inkscape:transform-center-y="0.023270542" />
    <path
       sodipodi:type="star"
       style="fill:#f2f2f2"
       id="path4066"
       sodipodi:sides="5"
       sodipodi:cx="109.248"
       sodipodi:cy="39.971431"
       sodipodi:r1="3.9051248"
       sodipodi:r2="1.9525623"
       sodipodi:arg1="1.4801364"
       sodipodi:arg2="2.108455"
       inkscape:flatsided="false"
       inkscape:rounded="0"
       inkscape:randomized="0"
       d="m 109.60155,43.860519 -1.35351,-2.212012 -2.58953,-0.139032 1.68549,-1.970816 -0.66798,-2.505751 2.3952,0.99398 2.1767,-1.409608 -0.20518,2.58513 2.01326,1.634566 -2.52201,0.603718 z"
       inkscape:transform-center-x="-0.10925401"
       inkscape:transform-center-y="0.26746806" />
    <path
       sodipodi:type="star"
       style="fill:#f2f2f2"
       id="path4068"
       sodipodi:sides="5"
       sodipodi:cx="143.89623"
       sodipodi:cy="18.758228"
       sodipodi:r1="2.4748737"
       sodipodi:r2="1.2374368"
       sodipodi:arg1="1.5707963"
       sodipodi:arg2="2.1991149"
       inkscape:flatsided="false"
       inkscape:rounded="0"
       inkscape:randomized="0"
       d="m 143.89623,21.233102 -0.72735,-1.473766 -1.6264,-0.23633 1.17687,-1.147167 -0.27782,-1.619826 1.4547,0.764779 1.45469,-0.764779 -0.27782,1.619826 1.17687,1.147167 -1.6264,0.23633 z"
       inkscape:transform-center-y="0.23632941" />
    <path
       sodipodi:type="star"
       style="fill:#f2f2f2"
       id="path4070"
       sodipodi:sides="5"
       sodipodi:cx="248.19448"
       sodipodi:cy="20.879548"
       sodipodi:r1="4.7169905"
       sodipodi:r2="2.3584952"
       sodipodi:arg1="1.7975952"
       sodipodi:arg2="2.4259137"
       inkscape:flatsided="false"
       inkscape:rounded="0"
       inkscape:randomized="0"
       d="m 247.13381,25.475741 -0.71917,-3.048715 -2.91917,-1.135925 2.67726,-1.626079 0.17826,-3.127314 2.37381,2.043742 3.02934,-0.796861 -1.21017,2.889181 1.69398,2.634827 -3.12174,-0.25813 z"
       inkscape:transform-center-x="0.32776202"
       inkscape:transform-center-y="0.12717728" />
    <path
       sodipodi:type="star"
       style="fill:#f2f2f2"
       id="path4072"
       sodipodi:sides="5"
       sodipodi:cx="210.01071"
       sodipodi:cy="28.657723"
       sodipodi:r1="2.9154759"
       sodipodi:r2="1.4577379"
       sodipodi:arg1="1.3258177"
       sodipodi:arg2="1.9541362"
       inkscape:flatsided="false"
       inkscape:rounded="0"
       inkscape:randomized="0"
       d="m 210.71782,31.48615 -1.25233,-1.476491 -1.92626,0.194594 1.01723,-1.647297 -0.78032,-1.771852 1.88102,0.458405 1.444,-1.289659 0.14529,1.930607 1.67276,0.974799 -1.79121,0.734776 z"
       inkscape:transform-center-x="-0.21850801"
       inkscape:transform-center-y="0.062277288" />
    <path
       sodipodi:type="star"
       style="fill:#f2f2f2"
       id="path4074"
       sodipodi:sides="5"
       sodipodi:cx="312.18764"
       sodipodi:cy="27.597063"
       sodipodi:r1="6.754628"
       sodipodi:r2="3.3773139"
       sodipodi:arg1="0.74837805"
       sodipodi:arg2="1.3766966"
       inkscape:flatsided="false"
       inkscape:rounded="0"
       inkscape:randomized="0"
       d="m 317.1374,32.193257 -4.29832,-1.2823 -3.49311,2.813898 -0.10872,-4.484198 -3.7556,-2.452605 4.23113,-1.489086 1.17202,-4.329691 2.72369,3.563892 4.47996,-0.223291 -2.5478,3.691692 z"
       inkscape:transform-center-x="0.40260425"
       inkscape:transform-center-y="-0.24999801" />
    <path
       sodipodi:type="star"
       style="fill:#f2f2f2"
       id="path4076"
       sodipodi:sides="5"
       sodipodi:cx="359.5638"
       sodipodi:cy="44.921179"
       sodipodi:r1="1.7677669"
       sodipodi:r2="0.88388345"
       sodipodi:arg1="0.92729522"
       sodipodi:arg2="1.5556137"
       inkscape:flatsided="false"
       inkscape:rounded="0"
       inkscape:randomized="0"
       d="m 360.62447,46.335394 -1.04724,-0.530432 -1.03065,0.561983 0.18085,-1.159898 -0.85296,-0.806549 1.15901,-0.186424 0.50349,-1.060456 0.53546,1.044681 1.16414,0.15115 -0.82808,0.832073 z"
       inkscape:transform-center-x="0.0082934687"
       inkscape:transform-center-y="-0.16089971" />
    <path
       sodipodi:type="star"
       style="fill:#f2f2f2"
       id="path4078"
       sodipodi:sides="5"
       sodipodi:cx="433.45646"
       sodipodi:cy="10.272947"
       sodipodi:r1="4.808846"
       sodipodi:r2="2.404423"
       sodipodi:arg1="1.2722974"
       sodipodi:arg2="1.9006159"
       inkscape:flatsided="false"
       inkscape:rounded="0"
       inkscape:randomized="0"
       d="m 434.87066,14.869141 -2.19293,-2.321367 -3.1555,0.490472 1.53009,-2.802951 -1.44157,-2.8494929 3.13859,0.5890482 2.26456,-2.251556 0.40966,3.1670034 2.84115,1.4579543 -2.88541,1.368268 z"
       inkscape:transform-center-x="-0.43701602"
       inkscape:transform-center-y="0.023270542" />
    <path
       sodipodi:type="star"
       style="fill:#f2f2f2"
       id="path4080"
       sodipodi:sides="5"
       sodipodi:cx="17.677669"
       sodipodi:cy="86.286925"
       sodipodi:r1="4.3011626"
       sodipodi:r2="2.1505813"
       sodipodi:arg1="1.4056476"
       sodipodi:arg2="2.0339662"
       inkscape:flatsided="false"
       inkscape:rounded="0"
       inkscape:randomized="0"
       d="m 18.384777,90.529567 -1.667958,-2.318643 -2.855633,0.05955 1.689734,-2.302822 -0.939074,-2.697466 2.71227,0.895421 2.275254,-1.726675 -0.01346,2.856222 2.345258,1.630323 -2.720588,0.869821 z"
       inkscape:transform-center-x="-0.21850801"
       inkscape:transform-center-y="0.19732267" />
    <path
       sodipodi:type="star"
       style="fill:#f2f2f2"
       id="path4082"
       sodipodi:sides="5"
       sodipodi:cx="39.59798"
       sodipodi:cy="117.75318"
       sodipodi:r1="8.5513157"
       sodipodi:r2="4.2756578"
       sodipodi:arg1="1.4464413"
       sodipodi:arg2="2.0747599"
       inkscape:flatsided="false"
       inkscape:rounded="0"
       inkscape:randomized="0"
       d="m 40.658641,126.23846 -3.125376,-4.74119 -5.677504,-0.11324 3.543348,-4.43752 -1.646744,-5.43462 5.315286,1.99865 4.65976,-3.24554 -0.258321,5.67276 4.526634,3.42877 -5.474936,1.5073 z"
       inkscape:transform-center-x="-0.32776202"
       inkscape:transform-center-y="0.49855207" />
    <path
       sodipodi:type="star"
       style="fill:#f2f2f2"
       id="path4084"
       sodipodi:sides="5"
       sodipodi:cx="25.102291"
       sodipodi:cy="159.11892"
       sodipodi:r1="5.3502336"
       sodipodi:r2="2.6751168"
       sodipodi:arg1="1.4382448"
       sodipodi:arg2="2.0665633"
       inkscape:flatsided="false"
       inkscape:rounded="0"
       inkscape:randomized="0"
       d="m 25.809398,164.42223 -1.979677,-2.95026 -3.552661,-0.0417 2.194108,-2.79447 -1.05814,-3.39168 3.33571,1.22319 2.898694,-2.05444 -0.132526,3.55043 2.849632,2.12197 -3.417615,0.9711 z"
       inkscape:transform-center-x="-0.21850801"
       inkscape:transform-center-y="0.2986067" />
    <path
       sodipodi:type="star"
       style="fill:#ececec"
       id="path3019"
       sodipodi:sides="5"
       sodipodi:cx="766.1502"
       sodipodi:cy="32.19325"
       sodipodi:r1="5.3033009"
       sodipodi:r2="2.6516502"
       sodipodi:arg1="1.5707963"
       sodipodi:arg2="2.1991149"
       inkscape:flatsided="false"
       inkscape:rounded="0"
       inkscape:randomized="0"
       d="m 766.15021,37.49655 -1.5586,-3.158071 -3.48514,-0.50642 2.52187,-2.458215 -0.59533,-3.471056 3.1172,1.638811 3.1172,-1.638811 -0.59533,3.471056 2.52187,2.458215 -3.48514,0.50642 z"
       inkscape:transform-center-y="0.50642017" />
    <path
       sodipodi:type="star"
       style="fill:#ececec"
       id="path3021"
       sodipodi:sides="5"
       sodipodi:cx="792.66671"
       sodipodi:cy="4.2625316"
       sodipodi:r1="4.7169906"
       sodipodi:r2="2.3584951"
       sodipodi:arg1="1.3439975"
       sodipodi:arg2="1.972316"
       inkscape:flatsided="false"
       inkscape:rounded="0"
       inkscape:randomized="0"
       d="m 793.72735,8.8587258 -1.9824,-2.4252745 -3.12174,0.2581302 1.69398,-2.6348269 -1.21017,-2.8891816 3.02934,0.796862 2.37381,-2.04374264 0.17826,3.12731464 2.67726,1.6260792 -2.91917,1.1359247 z"
       inkscape:transform-center-x="-0.32776202"
       inkscape:transform-center-y="0.12717728" />
    <path
       sodipodi:type="star"
       style="fill:#ececec"
       id="path3023"
       sodipodi:sides="5"
       sodipodi:cx="780.29234"
       sodipodi:cy="80.276511"
       sodipodi:r1="11.884864"
       sodipodi:r2="5.9424317"
       sodipodi:arg1="1.1737169"
       sodipodi:arg2="1.8020354"
       inkscape:flatsided="false"
       inkscape:rounded="0"
       inkscape:randomized="0"
       d="m 784.88855,91.236667 -5.9581,-5.175892 -7.64152,1.973851 3.08141,-7.265931 -4.2386,-6.657559 7.86252,0.685299 5.02192,-6.088449 1.77789,7.689469 7.34232,2.894691 -6.76372,4.067054 z"
       inkscape:transform-center-x="-0.84170619"
       inkscape:transform-center-y="-0.30418587" />
    <path
       sodipodi:type="star"
       style="fill:#ececec"
       id="path3025"
       sodipodi:sides="5"
       sodipodi:cx="755.5436"
       sodipodi:cy="125.8849"
       sodipodi:r1="5"
       sodipodi:r2="2.4999999"
       sodipodi:arg1="1.4288993"
       sodipodi:arg2="2.0572178"
       inkscape:flatsided="false"
       inkscape:rounded="0"
       inkscape:randomized="0"
       d="m 756.25069,130.83465 -1.87577,-2.73972 -3.32032,-0.008 2.02598,-2.63059 -1.01845,-3.16027 3.1279,1.11393 2.69088,-1.94518 -0.0928,3.31903 2.68151,1.95808 -3.18528,0.93734 z"
       inkscape:transform-center-x="-0.21850801"
       inkscape:transform-center-y="0.26484536" />
    <path
       sodipodi:type="star"
       style="fill:#ececec"
       id="path3027"
       sodipodi:sides="5"
       sodipodi:cx="707.46034"
       sodipodi:cy="146.74455"
       sodipodi:r1="4.0311289"
       sodipodi:r2="2.0155644"
       sodipodi:arg1="0.90975316"
       sodipodi:arg2="1.5380717"
       inkscape:flatsided="false"
       inkscape:rounded="0"
       inkscape:randomized="0"
       d="m 709.9352,149.92653 -2.40893,-1.16749 -2.32741,1.32254 0.36596,-2.6518 -1.97703,-1.80481 2.6351,-0.47141 1.10554,-2.43798 1.26263,2.36046 2.66029,0.29805 -1.85475,1.93025 z"
       inkscape:transform-center-x="0.040757392"
       inkscape:transform-center-y="-0.34596988" />
    <path
       sodipodi:type="star"
       style="fill:#ececec"
       id="path3029"
       sodipodi:sides="5"
       sodipodi:cx="721.95603"
       sodipodi:cy="182.45344"
       sodipodi:r1="2.6925824"
       sodipodi:r2="1.3462912"
       sodipodi:arg1="1.1659045"
       sodipodi:arg2="1.7942231"
       inkscape:flatsided="false"
       inkscape:rounded="0"
       inkscape:randomized="0"
       d="m 723.01671,184.92832 -1.35896,-1.16205 -1.72768,0.4607 0.68523,-1.65154 -0.97203,-1.50076 1.78245,0.14134 1.12694,-1.38822 0.41639,1.73889 1.66851,0.6428 -1.52511,0.93335 z"
       inkscape:transform-center-x="-0.18436021"
       inkscape:transform-center-y="-0.075390792" />
    <path
       sodipodi:type="star"
       style="fill:#ececec"
       id="path3031"
       sodipodi:sides="5"
       sodipodi:cx="783.12077"
       sodipodi:cy="150.98719"
       sodipodi:r1="3.4820971"
       sodipodi:r2="1.7410485"
       sodipodi:arg1="1.9890207"
       sodipodi:arg2="2.6173392"
       inkscape:flatsided="false"
       inkscape:rounded="0"
       inkscape:randomized="0"
       d="m 781.70657,154.16916 -0.093,-2.31047 -1.95604,-1.23322 2.16865,-0.80243 0.56841,-2.24139 1.43331,1.81454 2.30733,-0.15203 -1.28281,1.92388 0.8576,2.14743 -2.22613,-0.62552 z"
       inkscape:transform-center-x="0.22440765"
       inkscape:transform-center-y="-0.11177484" />
    <path
       sodipodi:type="star"
       style="fill:#ececec"
       id="path3033"
       sodipodi:sides="5"
       sodipodi:cx="764.02888"
       sodipodi:cy="220.28366"
       sodipodi:r1="3.5355339"
       sodipodi:r2="1.7677669"
       sodipodi:arg1="0.92729522"
       sodipodi:arg2="1.5556137"
       inkscape:flatsided="false"
       inkscape:rounded="0"
       inkscape:randomized="0"
       d="m 766.15019,223.11209 -2.09448,-1.06087 -2.06131,1.12397 0.36171,-2.3198 -1.70593,-1.61309 2.31803,-0.37285 1.00698,-2.12092 1.07091,2.08937 2.32829,0.3023 -1.65617,1.66414 z"
       inkscape:transform-center-x="0.016586938"
       inkscape:transform-center-y="-0.32179942" />
    <path
       sodipodi:type="star"
       style="fill:#ececec"
       id="path3035"
       sodipodi:sides="5"
       sodipodi:cx="768.27152"
       sodipodi:cy="265.53849"
       sodipodi:r1="5.0990196"
       sodipodi:r2="2.5495097"
       sodipodi:arg1="0.98279372"
       sodipodi:arg2="1.6111123"
       inkscape:flatsided="false"
       inkscape:rounded="0"
       inkscape:randomized="0"
       d="m 771.09997,269.78112 -2.93118,-1.6952 -3.0582,1.4536 0.70644,-3.31156 -2.32749,-2.45934 3.36779,-0.35146 1.61973,-2.97355 1.37497,3.09435 3.32854,0.62158 -2.51802,2.26387 z"
       inkscape:transform-center-x="-0.063507942"
       inkscape:transform-center-y="-0.42611774" />
    <path
       sodipodi:type="star"
       style="fill:#ececec"
       id="path3037"
       sodipodi:sides="5"
       sodipodi:cx="737.51238"
       sodipodi:cy="229.8296"
       sodipodi:r1="2.7613403"
       sodipodi:r2="1.3806701"
       sodipodi:arg1="0.69473828"
       sodipodi:arg2="1.3230568"
       inkscape:flatsided="false"
       inkscape:rounded="0"
       inkscape:randomized="0"
       d="m 739.63371,231.59737 -1.78276,-0.42925 -1.36428,1.22525 -0.14266,-1.82815 -1.58687,-0.91889 1.69459,-0.70061 0.38354,-1.79315 1.18998,1.39515 1.82391,-0.18934 -0.95914,1.56286 z"
       inkscape:transform-center-x="0.20924062"
       inkscape:transform-center-y="-0.056634377" />
    <path
       sodipodi:type="star"
       style="fill:#ececec"
       id="path3039"
       sodipodi:sides="5"
       sodipodi:cx="722.00001"
       sodipodi:cy="246.75"
       sodipodi:r1="4.9244289"
       sodipodi:r2="2.4622144"
       sodipodi:arg1="1.152572"
       sodipodi:arg2="1.7808905"
       inkscape:flatsided="false"
       inkscape:rounded="0"
       inkscape:randomized="0"
       d="m 724,251.25 -2.5135,-2.09193 -3.14822,0.88462 1.21283,-3.03692 -1.81418,-2.72078 L 721,244.5 l 2.027,-2.56615 0.80386,3.16981 3.06693,1.1348 -2.76626,1.74404 z"
       inkscape:transform-center-x="-0.31736035"
       inkscape:transform-center-y="-0.15807349" />
    <path
       sodipodi:type="star"
       style="fill:#ececec"
       id="path3041"
       sodipodi:sides="5"
       sodipodi:cx="733.75001"
       sodipodi:cy="265.5"
       sodipodi:r1="2.2638463"
       sodipodi:r2="1.1319231"
       sodipodi:arg1="1.4601391"
       sodipodi:arg2="2.0884576"
       inkscape:flatsided="false"
       inkscape:rounded="0"
       inkscape:randomized="0"
       d="m 734,267.75 -0.81013,-1.26638 -1.50249,-0.0506 0.95405,-1.16181 -0.4162,-1.44458 1.39977,0.54834 1.24526,-0.84223 -0.089,1.5007 1.18582,0.92405 -1.45474,0.37915 z"
       inkscape:transform-center-x="-0.077254249"
       inkscape:transform-center-y="0.14138273" />
    <path
       sodipodi:type="star"
       style="fill:#ececec"
       id="path3043"
       sodipodi:sides="5"
       sodipodi:cx="722.50001"
       sodipodi:cy="324.75"
       sodipodi:r1="4.5961941"
       sodipodi:r2="2.298097"
       sodipodi:arg1="1.1801893"
       sodipodi:arg2="1.8085078"
       inkscape:flatsided="false"
       inkscape:rounded="0"
       inkscape:randomized="0"
       d="m 724.25,329 -2.29115,-2.01653 -2.96006,0.7442 1.20983,-2.80216 -1.62249,-2.58521 3.03887,0.2847 1.95731,-2.34195 0.6683,2.97811 2.83216,1.13781 -2.62584,1.55588 z"
       inkscape:transform-center-x="-0.33445144"
       inkscape:transform-center-y="-0.10847321" />
  </g>
</svg>
