<?xml version="1.0" standalone="no"?>
<!DOCTYPE svg PUBLIC "-//W3C//DTD SVG 20010904//EN"
 "http://www.w3.org/TR/2001/REC-SVG-20010904/DTD/svg10.dtd">
<svg version="1.0" xmlns="http://www.w3.org/2000/svg"
 width="255.000000pt" height="255.000000pt" viewBox="0 0 255.000000 255.000000"
 preserveAspectRatio="xMidYMid meet">
<metadata>
Created by potrace 1.14, written by Peter Selinger 2001-2017
</metadata>
<g transform="translate(0.000000,255.000000) scale(0.100000,-0.100000)"
fill="#000000" stroke="none">
<path d="M1130 2547 c-3 -3 -25 -7 -50 -10 -110 -12 -255 -59 -388 -126 -29
-14 -61 -30 -72 -36 -11 -5 -20 -13 -20 -17 0 -5 -5 -8 -10 -8 -34 0 -221
-167 -311 -276 -91 -111 -197 -304 -213 -385 -2 -13 -9 -37 -15 -53 -14 -34
-30 -103 -39 -166 -10 -62 -9 -333 1 -400 4 -30 8 -63 8 -72 0 -10 4 -18 9
-18 4 0 7 -6 7 -12 -2 -17 30 -125 47 -163 20 -44 29 -69 28 -77 -1 -5 2 -8 7
-8 5 0 14 -15 22 -33 62 -154 301 -410 474 -507 51 -29 165 -89 168 -89 1 0
18 -6 37 -13 19 -7 38 -11 43 -10 4 1 7 -2 7 -6 0 -4 9 -8 19 -9 11 -1 40 -9
66 -17 26 -9 51 -14 56 -11 5 4 9 2 9 -4 0 -6 7 -8 15 -5 8 4 21 2 28 -4 13
-10 405 -14 422 -4 6 4 15 7 20 8 6 1 26 4 45 7 19 4 54 13 77 21 22 8 44 12
47 9 3 -4 6 0 6 7 0 7 3 10 7 7 3 -4 12 -2 20 4 7 6 13 8 13 5 0 -4 10 -1 23
6 12 7 25 12 29 13 3 0 10 3 14 7 4 5 16 8 26 8 10 0 18 4 18 9 0 5 17 16 38
24 36 14 117 64 177 109 17 12 78 70 136 128 105 105 160 176 215 280 16 30
32 57 37 58 4 2 7 10 7 18 0 8 10 36 21 62 12 25 22 51 24 57 1 5 5 17 8 25
10 26 26 84 32 115 3 17 9 41 12 55 8 36 12 413 5 425 -4 6 -7 18 -8 28 -1 9
-3 20 -4 25 -1 4 -3 12 -4 17 -1 6 -8 30 -15 55 -7 25 -15 52 -16 61 -14 71
-144 323 -193 374 -12 13 -22 26 -22 31 0 10 -185 191 -232 227 -94 72 -297
180 -360 192 -12 3 -42 11 -67 19 -25 9 -59 18 -76 21 -16 2 -41 8 -55 11 -32
8 -353 18 -360 11z"/>
</g>
</svg>
